<svg width="49" height="49" viewBox="0 0 49 49" fill="none" xmlns="http://www.w3.org/2000/svg">
<rect width="49" height="49" fill="#E5E5E5"/>
<rect width="1440" height="5053" transform="translate(-944 -1134)" fill="white"/>
<g clip-path="url(#clip0_0_1)">
<rect width="1440" height="348" transform="translate(-944 -110)" fill="#171836"/>
<path d="M405.667 -381.683C441.084 -433.592 575.679 -450.967 575.679 -450.967L731.845 415.712L330.473 488.034C330.473 488.034 -24.8594 414.6 -20.3821 280.48C-15.9049 146.359 124.794 144.771 95.4274 -18.2087C80.6025 -100.483 157.37 -161.565 209.799 -181.674C253.347 -198.377 315.104 -205.383 347.736 -240.338C399.3 -295.573 363.316 -319.612 405.667 -381.683Z" fill="url(#paint0_linear_0_1)"/>
<circle cx="24.7082" cy="24.7081" r="23.5" transform="rotate(119.509 24.7082 24.7081)" stroke="url(#paint1_linear_0_1)"/>
<path d="M19.0121 30H34.0001V16C34.0001 14.897 33.1031 14 32.0001 14H19.0001C17.7941 14 16.0001 14.799 16.0001 17V31C16.0001 33.201 17.7941 34 19.0001 34H34.0001V32H19.0121C18.5501 31.988 18.0001 31.806 18.0001 31C18.0001 30.899 18.0091 30.809 18.0241 30.727C18.1361 30.151 18.6081 30.01 19.0121 30ZM21.6481 19.642C22.0643 19.2311 22.6257 19.0006 23.2106 19.0006C23.7955 19.0006 24.3568 19.2311 24.7731 19.642L24.9971 19.861L25.2201 19.642C25.6365 19.231 26.198 19.0006 26.7831 19.0006C27.3681 19.0006 27.9297 19.231 28.3461 19.642C28.5526 19.8406 28.7169 20.079 28.8292 20.3426C28.9414 20.6063 28.9993 20.8899 28.9993 21.1765C28.9993 21.4631 28.9414 21.7467 28.8292 22.0104C28.7169 22.274 28.5526 22.5124 28.3461 22.711L24.9981 26L21.6491 22.711C21.4423 22.5125 21.2778 22.2743 21.1654 22.0106C21.053 21.747 20.995 21.4633 20.9949 21.1767C20.9948 20.8901 21.0526 20.6064 21.1649 20.3427C21.2771 20.079 21.4414 19.8406 21.6481 19.642Z" fill="url(#paint2_linear_0_1)"/>
<circle cx="5" cy="5" r="1" fill="#BBAC64"/>
<circle cx="40" cy="38" r="1" fill="#BBAC64"/>
<circle cx="9.5" cy="9.5" r="0.5" fill="#BBAC64"/>
<circle cx="1.5" cy="10.5" r="0.5" fill="#BBAC64"/>
<circle cx="4.5" cy="16.5" r="0.5" fill="#BBAC64"/>
<circle cx="35.5" cy="42.5" r="0.5" fill="#BBAC64"/>
<circle cx="42.5" cy="44.5" r="0.5" fill="#BBAC64"/>
</g>
<defs>
<linearGradient id="paint0_linear_0_1" x1="-79.682" y1="-216.924" x2="423.908" y2="-135.137" gradientUnits="userSpaceOnUse">
<stop offset="0.00612331" stop-color="#1A1B3D"/>
<stop offset="1" stop-color="#1E2048" stop-opacity="0"/>
</linearGradient>
<linearGradient id="paint1_linear_0_1" x1="24.7082" y1="0.708113" x2="24.7082" y2="48.7081" gradientUnits="userSpaceOnUse">
<stop stop-color="#B8A74D"/>
<stop offset="1" stop-color="#2C2E59"/>
</linearGradient>
<linearGradient id="paint2_linear_0_1" x1="25.0001" y1="14" x2="25.0001" y2="34" gradientUnits="userSpaceOnUse">
<stop stop-color="#B0A04E"/>
<stop offset="1" stop-color="#CCC18A"/>
</linearGradient>
<clipPath id="clip0_0_1">
<rect width="1440" height="348" fill="white" transform="translate(-944 -110)"/>
</clipPath>
</defs>
</svg>
