<svg width="357" height="19" viewBox="0 0 357 19" fill="none" xmlns="http://www.w3.org/2000/svg">
<rect width="357" height="19" fill="#E5E5E5"/>
<g clip-path="url(#clip0_0_1)">
<rect width="1440" height="5053" transform="translate(-539 -5004)" fill="white"/>
<rect width="1440" height="387" transform="translate(-539 -338)" fill="#171836"/>
<path d="M10.7727 7C10.3409 4.61364 8.43182 3.20455 6.09091 3.20455C3.11364 3.20455 0.954545 5.5 0.954545 9.18182C0.954545 12.8636 3.11364 15.1591 6.09091 15.1591C8.43182 15.1591 10.3409 13.75 10.7727 11.3636H9.36364C9.02273 12.9773 7.63636 13.8409 6.09091 13.8409C3.97727 13.8409 2.31818 12.2045 2.31818 9.18182C2.31818 6.15909 3.97727 4.52273 6.09091 4.52273C7.63636 4.52273 9.02273 5.38636 9.36364 7H10.7727ZM16.4134 15.1818C18.777 15.1818 20.3679 13.3864 20.3679 10.6818C20.3679 7.95455 18.777 6.15909 16.4134 6.15909C14.0497 6.15909 12.4588 7.95455 12.4588 10.6818C12.4588 13.3864 14.0497 15.1818 16.4134 15.1818ZM16.4134 13.9773C14.6179 13.9773 13.7997 12.4318 13.7997 10.6818C13.7997 8.93182 14.6179 7.36364 16.4134 7.36364C18.2088 7.36364 19.027 8.93182 19.027 10.6818C19.027 12.4318 18.2088 13.9773 16.4134 13.9773ZM22.4148 18.2727H23.7557V13.6591H23.8693C24.1648 14.1364 24.733 15.1818 26.4148 15.1818C28.5966 15.1818 30.1193 13.4318 30.1193 10.6591C30.1193 7.90909 28.5966 6.15909 26.392 6.15909C24.6875 6.15909 24.1648 7.20455 23.8693 7.65909H23.7102V6.27273H22.4148V18.2727ZM23.733 10.6364C23.733 8.68182 24.5966 7.36364 26.233 7.36364C27.9375 7.36364 28.7784 8.79545 28.7784 10.6364C28.7784 12.5 27.9148 13.9773 26.233 13.9773C24.6193 13.9773 23.733 12.6136 23.733 10.6364ZM32.7159 18.2727C33.9261 18.2727 34.7784 17.6307 35.2841 16.2727L39 6.29545L37.5341 6.27273L35.125 13.2273H35.0341L32.625 6.27273H31.1705L34.3977 15.0455L34.1477 15.7273C33.6591 17.0568 33.0568 17.1818 32.0795 16.9318L31.7386 18.1136C31.875 18.1818 32.2614 18.2727 32.7159 18.2727ZM40.7741 15H42.1151V9.47727C42.1151 8.29545 43.0469 7.43182 44.3196 7.43182C44.6776 7.43182 45.0469 7.5 45.1378 7.52273V6.15909C44.9844 6.14773 44.6321 6.13636 44.4332 6.13636C43.3878 6.13636 42.4787 6.72727 42.1605 7.59091H42.0696V6.27273H40.7741V15ZM46.7273 15H48.0682V6.27273H46.7273V15ZM47.4091 4.81818C47.9318 4.81818 48.3636 4.40909 48.3636 3.90909C48.3636 3.40909 47.9318 3 47.4091 3C46.8864 3 46.4545 3.40909 46.4545 3.90909C46.4545 4.40909 46.8864 4.81818 47.4091 4.81818ZM54.0469 18.4545C56.1378 18.4545 57.8196 17.5 57.8196 15.25V6.27273H56.5241V7.65909H56.3878C56.0923 7.20455 55.5469 6.15909 53.8423 6.15909C51.6378 6.15909 50.1151 7.90909 50.1151 10.5909C50.1151 13.3182 51.706 14.8636 53.8196 14.8636C55.5241 14.8636 56.0696 13.8636 56.3651 13.3864H56.4787V15.1591C56.4787 16.6136 55.456 17.2727 54.0469 17.2727C52.4616 17.2727 51.9048 16.4375 51.5469 15.9545L50.4787 16.7045C51.0241 17.6193 52.098 18.4545 54.0469 18.4545ZM54.0014 13.6591C52.3196 13.6591 51.456 12.3864 51.456 10.5682C51.456 8.79545 52.2969 7.36364 54.0014 7.36364C55.6378 7.36364 56.5014 8.68182 56.5014 10.5682C56.5014 12.5 55.6151 13.6591 54.0014 13.6591ZM61.6151 9.75C61.6151 8.22727 62.5866 7.36364 63.9105 7.36364C65.1719 7.36364 65.9332 8.15909 65.9332 9.54545V15H67.2741V9.45455C67.2741 7.21023 66.081 6.15909 64.2969 6.15909C62.9219 6.15909 62.1378 6.73295 61.7287 7.63636H61.6151V3.36364H60.2741V15H61.6151V9.75ZM73.5227 6.27273H71.6591V4.18182H70.3182V6.27273H69V7.40909H70.3182V12.8636C70.3182 14.3864 71.5455 15.1136 72.6818 15.1136C73.1818 15.1136 73.5 15.0227 73.6818 14.9545L73.4091 13.75C73.2955 13.7727 73.1136 13.8182 72.8182 13.8182C72.2273 13.8182 71.6591 13.6364 71.6591 12.5V7.40909H73.5227V6.27273Z" fill="#8F91D0"/>
<path d="M87.4637 9.90791C87.5077 10.1679 87.5877 10.3999 87.7037 10.6039C87.8197 10.8079 87.9797 10.9719 88.1757 11.0959C88.3637 11.2119 88.5997 11.2759 88.8917 11.2799C89.0837 11.2759 89.2597 11.2439 89.4117 11.1759C89.5757 11.1039 89.7117 11.0079 89.8277 10.8879C89.9437 10.7679 90.0317 10.6239 90.0957 10.4639C90.1597 10.3039 90.1957 10.1319 90.2037 9.95191H91.6357C91.6237 10.3279 91.5477 10.6719 91.4157 10.9839C91.2837 11.2959 91.0917 11.5639 90.8517 11.7919C90.6117 12.0199 90.3237 12.1919 89.9877 12.3159C89.6517 12.4399 89.2797 12.5039 88.8717 12.5039C88.3517 12.5039 87.8997 12.4159 87.5157 12.2359C87.1317 12.0559 86.8117 11.8119 86.5557 11.4999C86.2997 11.1879 86.1077 10.8279 85.9837 10.4159C85.8597 10.0039 85.7997 9.5679 85.7997 9.1079V8.8879C85.7997 8.4239 85.8637 7.9879 85.9877 7.5759C86.1117 7.1639 86.3037 6.8039 86.5597 6.4959C86.8157 6.1879 87.1357 5.9439 87.5237 5.7639C87.9117 5.5839 88.3637 5.4959 88.8837 5.4959C89.2597 5.4959 89.6117 5.5559 89.9397 5.6799C90.2677 5.8039 90.5557 5.9719 90.8037 6.1879C91.0517 6.4039 91.2517 6.6519 91.3957 6.9399C91.5397 7.2279 91.6237 7.5319 91.6357 7.8599H90.2037C90.1957 7.6919 90.1557 7.5399 90.0837 7.3959C90.0117 7.2519 89.9157 7.1319 89.7957 7.0319C89.6757 6.9319 89.5357 6.8519 89.3757 6.7959C89.2237 6.7439 89.0637 6.7159 88.8917 6.7159C88.6037 6.7239 88.3677 6.7839 88.1757 6.9039C87.9757 7.0319 87.8157 7.1959 87.6997 7.3999C87.5837 7.6039 87.5037 7.8359 87.4597 8.09991C87.4157 8.3639 87.3997 8.6199 87.3997 8.8879V9.1079C87.3997 9.3799 87.4197 9.64791 87.4637 9.90791Z" fill="#8F91D0"/>
<path d="M89 17C84.58 17 81 13.42 81 9C81 4.58 84.58 1 89 1C93.42 1 97 4.58 97 9C97 13.42 93.42 17 89 17ZM89 2.6C85.472 2.6 82.6 5.472 82.6 9C82.6 12.528 85.472 15.4 89 15.4C92.528 15.4 95.4 12.528 95.4 9C95.4 5.472 92.528 2.6 89 2.6Z" fill="#8F91D0"/>
<path d="M104.205 15H111.545V13.75H106.136V13.6591L108.75 10.8636C110.75 8.72159 111.341 7.72159 111.341 6.43182C111.341 4.63636 109.886 3.20455 107.841 3.20455C105.801 3.20455 104.25 4.59091 104.25 6.63636H105.591C105.591 5.3125 106.449 4.43182 107.795 4.43182C109.057 4.43182 110.023 5.20455 110.023 6.43182C110.023 7.50568 109.392 8.30114 108.045 9.77273L104.205 13.9773V15ZM117.688 15.1591C120.256 15.1591 121.733 12.983 121.733 9.18182C121.733 5.40909 120.233 3.20455 117.688 3.20455C115.142 3.20455 113.642 5.40909 113.642 9.18182C113.642 12.983 115.119 15.1591 117.688 15.1591ZM117.688 13.9091C115.994 13.9091 115.006 12.2102 115.006 9.18182C115.006 6.15909 116.006 4.43182 117.688 4.43182C119.369 4.43182 120.369 6.15909 120.369 9.18182C120.369 12.2102 119.381 13.9091 117.688 13.9091ZM123.892 15H131.233V13.75H125.824V13.6591L128.438 10.8636C130.438 8.72159 131.028 7.72159 131.028 6.43182C131.028 4.63636 129.574 3.20455 127.528 3.20455C125.489 3.20455 123.938 4.59091 123.938 6.63636H125.278C125.278 5.3125 126.136 4.43182 127.483 4.43182C128.744 4.43182 129.71 5.20455 129.71 6.43182C129.71 7.50568 129.08 8.30114 127.733 9.77273L123.892 13.9773V15ZM137.67 3.36364H136.261L133.352 5.29545V6.72727L136.193 4.84091H136.261V15H137.67V3.36364ZM152.085 6.27273H153.449C153.386 4.51705 151.767 3.20455 149.517 3.20455C147.29 3.20455 145.54 4.5 145.54 6.45455C145.54 8.02273 146.676 8.95455 148.494 9.47727L149.926 9.88636C151.153 10.2273 152.244 10.6591 152.244 11.8182C152.244 13.0909 151.017 13.9318 149.403 13.9318C148.017 13.9318 146.79 13.3182 146.676 12H145.222C145.358 13.9091 146.903 15.2045 149.403 15.2045C152.085 15.2045 153.608 13.7273 153.608 11.8409C153.608 9.65909 151.54 8.95455 150.335 8.63636L149.153 8.31818C148.29 8.09091 146.903 7.63636 146.903 6.38636C146.903 5.27273 147.926 4.45455 149.472 4.45455C150.881 4.45455 151.949 5.125 152.085 6.27273ZM155.743 15H157.084V6.27273H155.743V15ZM156.425 4.81818C156.947 4.81818 157.379 4.40909 157.379 3.90909C157.379 3.40909 156.947 3 156.425 3C155.902 3 155.47 3.40909 155.47 3.90909C155.47 4.40909 155.902 4.81818 156.425 4.81818ZM160.881 9.75C160.881 8.22727 161.824 7.36364 163.108 7.36364C164.352 7.36364 165.108 8.17614 165.108 9.54545V15H166.449V9.45455C166.449 7.22727 165.261 6.15909 163.494 6.15909C162.176 6.15909 161.358 6.75 160.949 7.63636H160.835V6.27273H159.54V15H160.881V9.75ZM171.467 15.2045C172.99 15.2045 173.786 14.3864 174.058 13.8182H174.126V15H175.467V9.25C175.467 6.47727 173.354 6.15909 172.24 6.15909C170.922 6.15909 169.422 6.61364 168.74 8.20455L170.013 8.65909C170.308 8.02273 171.007 7.34091 172.286 7.34091C173.518 7.34091 174.126 7.99432 174.126 9.11364V9.15909C174.126 9.80682 173.467 9.75 171.876 9.95455C170.257 10.1648 168.49 10.5227 168.49 12.5227C168.49 14.2273 169.808 15.2045 171.467 15.2045ZM171.672 14C170.604 14 169.831 13.5227 169.831 12.5909C169.831 11.5682 170.763 11.25 171.808 11.1136C172.376 11.0455 173.899 10.8864 174.126 10.6136V11.8409C174.126 12.9318 173.263 14 171.672 14ZM183.415 11.4318C183.415 13.0682 182.165 13.8182 181.165 13.8182C180.051 13.8182 179.256 13 179.256 11.7273V6.27273H177.915V11.8182C177.915 14.0455 179.097 15.1136 180.733 15.1136C182.051 15.1136 182.915 14.4091 183.324 13.5227H183.415V15H184.756V6.27273H183.415V11.4318ZM189.189 15H190.507L192.416 8.29545H192.553L194.462 15H195.78L198.439 6.27273H197.03L195.143 12.9318H195.053L193.212 6.27273H191.78L189.916 12.9545H189.825L187.939 6.27273H186.53L189.189 15ZM200.001 15.0909C200.564 15.0909 201.024 14.6307 201.024 14.0682C201.024 13.5057 200.564 13.0455 200.001 13.0455C199.439 13.0455 198.979 13.5057 198.979 14.0682C198.979 14.6307 199.439 15.0909 200.001 15.0909ZM208.589 15L209.76 11.7045H214.464L215.635 15H217.112L212.839 3.36364H211.385L207.112 15H208.589ZM210.203 10.4545L212.067 5.20455H212.158L214.021 10.4545H210.203ZM220.084 3.36364H218.743V15H220.084V3.36364ZM223.881 3.36364H222.54V15H223.881V3.36364ZM231.018 15H232.428V10.4545H234.973C235.075 10.4545 235.172 10.4545 235.268 10.4489L237.723 15H239.359L236.729 10.1932C238.212 9.6875 238.905 8.47727 238.905 6.93182C238.905 4.875 237.678 3.36364 234.95 3.36364H231.018V15ZM232.428 9.18182V4.61364H234.905C236.791 4.61364 237.518 5.53409 237.518 6.93182C237.518 8.32955 236.791 9.18182 234.928 9.18182H232.428ZM241.071 15H242.412V6.27273H241.071V15ZM241.753 4.81818C242.276 4.81818 242.707 4.40909 242.707 3.90909C242.707 3.40909 242.276 3 241.753 3C241.23 3 240.798 3.40909 240.798 3.90909C240.798 4.40909 241.23 4.81818 241.753 4.81818ZM248.391 18.4545C250.482 18.4545 252.163 17.5 252.163 15.25V6.27273H250.868V7.65909H250.732C250.436 7.20455 249.891 6.15909 248.186 6.15909C245.982 6.15909 244.459 7.90909 244.459 10.5909C244.459 13.3182 246.05 14.8636 248.163 14.8636C249.868 14.8636 250.413 13.8636 250.709 13.3864H250.822V15.1591C250.822 16.6136 249.8 17.2727 248.391 17.2727C246.805 17.2727 246.249 16.4375 245.891 15.9545L244.822 16.7045C245.368 17.6193 246.442 18.4545 248.391 18.4545ZM248.345 13.6591C246.663 13.6591 245.8 12.3864 245.8 10.5682C245.8 8.79545 246.641 7.36364 248.345 7.36364C249.982 7.36364 250.845 8.68182 250.845 10.5682C250.845 12.5 249.959 13.6591 248.345 13.6591ZM255.959 9.75C255.959 8.22727 256.93 7.36364 258.254 7.36364C259.516 7.36364 260.277 8.15909 260.277 9.54545V15H261.618V9.45455C261.618 7.21023 260.425 6.15909 258.641 6.15909C257.266 6.15909 256.482 6.73295 256.072 7.63636H255.959V3.36364H254.618V15H255.959V9.75ZM267.866 6.27273H266.003V4.18182H264.662V6.27273H263.344V7.40909H264.662V12.8636C264.662 14.3864 265.889 15.1136 267.026 15.1136C267.526 15.1136 267.844 15.0227 268.026 14.9545L267.753 13.75C267.639 13.7727 267.457 13.8182 267.162 13.8182C266.571 13.8182 266.003 13.6364 266.003 12.5V7.40909H267.866V6.27273ZM275.909 8.22727C275.489 6.98864 274.545 6.15909 272.818 6.15909C270.977 6.15909 269.614 7.20455 269.614 8.68182C269.614 9.88636 270.33 10.6932 271.932 11.0682L273.386 11.4091C274.267 11.6136 274.682 12.0341 274.682 12.6364C274.682 13.3864 273.886 14 272.636 14C271.54 14 270.852 13.5284 270.614 12.5909L269.341 12.9091C269.653 14.392 270.875 15.1818 272.659 15.1818C274.688 15.1818 276.068 14.0739 276.068 12.5682C276.068 11.3523 275.307 10.5852 273.75 10.2045L272.455 9.88636C271.42 9.63068 270.955 9.28409 270.955 8.61364C270.955 7.86364 271.75 7.31818 272.818 7.31818C273.989 7.31818 274.472 7.96591 274.705 8.56818L275.909 8.22727ZM282.768 15H284.178V10.4545H286.723C286.825 10.4545 286.922 10.4545 287.018 10.4489L289.473 15H291.109L288.479 10.1932C289.962 9.6875 290.655 8.47727 290.655 6.93182C290.655 4.875 289.428 3.36364 286.7 3.36364H282.768V15ZM284.178 9.18182V4.61364H286.655C288.541 4.61364 289.268 5.53409 289.268 6.93182C289.268 8.32955 288.541 9.18182 286.678 9.18182H284.178ZM296.386 15.1818C298.159 15.1818 299.455 14.2955 299.864 12.9773L298.568 12.6136C298.227 13.5227 297.438 13.9773 296.386 13.9773C294.812 13.9773 293.727 12.9602 293.665 11.0909H300V10.5227C300 7.27273 298.068 6.15909 296.25 6.15909C293.886 6.15909 292.318 8.02273 292.318 10.7045C292.318 13.3864 293.864 15.1818 296.386 15.1818ZM293.665 9.93182C293.756 8.57386 294.716 7.36364 296.25 7.36364C297.705 7.36364 298.636 8.45455 298.636 9.93182H293.665ZM308.222 8.22727C307.801 6.98864 306.858 6.15909 305.131 6.15909C303.29 6.15909 301.926 7.20455 301.926 8.68182C301.926 9.88636 302.642 10.6932 304.244 11.0682L305.699 11.4091C306.58 11.6136 306.994 12.0341 306.994 12.6364C306.994 13.3864 306.199 14 304.949 14C303.852 14 303.165 13.5284 302.926 12.5909L301.653 12.9091C301.966 14.392 303.188 15.1818 304.972 15.1818C307 15.1818 308.381 14.0739 308.381 12.5682C308.381 11.3523 307.619 10.5852 306.062 10.2045L304.767 9.88636C303.733 9.63068 303.267 9.28409 303.267 8.61364C303.267 7.86364 304.062 7.31818 305.131 7.31818C306.301 7.31818 306.784 7.96591 307.017 8.56818L308.222 8.22727ZM314.058 15.1818C315.831 15.1818 317.126 14.2955 317.536 12.9773L316.24 12.6136C315.899 13.5227 315.109 13.9773 314.058 13.9773C312.484 13.9773 311.399 12.9602 311.337 11.0909H317.672V10.5227C317.672 7.27273 315.74 6.15909 313.922 6.15909C311.558 6.15909 309.99 8.02273 309.99 10.7045C309.99 13.3864 311.536 15.1818 314.058 15.1818ZM311.337 9.93182C311.428 8.57386 312.388 7.36364 313.922 7.36364C315.376 7.36364 316.308 8.45455 316.308 9.93182H311.337ZM319.712 15H321.053V9.47727C321.053 8.29545 321.984 7.43182 323.257 7.43182C323.615 7.43182 323.984 7.5 324.075 7.52273V6.15909C323.922 6.14773 323.57 6.13636 323.371 6.13636C322.325 6.13636 321.416 6.72727 321.098 7.59091H321.007V6.27273H319.712V15ZM333.067 6.27273H331.612L329.203 13.2273H329.112L326.703 6.27273H325.249L328.476 15H329.839L333.067 6.27273ZM338.183 15.1818C339.956 15.1818 341.251 14.2955 341.661 12.9773L340.365 12.6136C340.024 13.5227 339.234 13.9773 338.183 13.9773C336.609 13.9773 335.524 12.9602 335.462 11.0909H341.797V10.5227C341.797 7.27273 339.865 6.15909 338.047 6.15909C335.683 6.15909 334.115 8.02273 334.115 10.7045C334.115 13.3864 335.661 15.1818 338.183 15.1818ZM335.462 9.93182C335.553 8.57386 336.513 7.36364 338.047 7.36364C339.501 7.36364 340.433 8.45455 340.433 9.93182H335.462ZM347.132 15.1818C348.814 15.1818 349.382 14.1364 349.678 13.6591H349.837V15H351.132V3.36364H349.791V7.65909H349.678C349.382 7.20455 348.859 6.15909 347.155 6.15909C344.95 6.15909 343.428 7.90909 343.428 10.6591C343.428 13.4318 344.95 15.1818 347.132 15.1818ZM347.314 13.9773C345.632 13.9773 344.768 12.5 344.768 10.6364C344.768 8.79545 345.609 7.36364 347.314 7.36364C348.95 7.36364 349.814 8.68182 349.814 10.6364C349.814 12.6136 348.928 13.9773 347.314 13.9773ZM354.751 15.0909C355.314 15.0909 355.774 14.6307 355.774 14.0682C355.774 13.5057 355.314 13.0455 354.751 13.0455C354.189 13.0455 353.729 13.5057 353.729 14.0682C353.729 14.6307 354.189 15.0909 354.751 15.0909Z" fill="#8F91D0"/>
</g>
<defs>
<clipPath id="clip0_0_1">
<rect width="1440" height="5053" fill="white" transform="translate(-539 -5004)"/>
</clipPath>
</defs>
</svg>
