<svg width="115" height="26" viewBox="0 0 115 26" fill="none" xmlns="http://www.w3.org/2000/svg">
<rect width="115" height="26" fill="#E5E5E5"/>
<g clip-path="url(#clip0_0_1)">
<rect width="1440" height="5053" transform="translate(-94 -4730)" fill="white"/>
<rect width="1440" height="387" transform="translate(-94 -64)" fill="#171836"/>
<path d="M106.852 25.0193C106.852 26.6707 104.306 23.368 102.609 23.368C100.912 23.368 97.5185 26.6707 97.5185 25.0193C100.912 21.7167 100.948 15.1113 102.27 15.1113C103.592 15.1113 104.306 21.7167 106.852 25.0193Z" fill="#F5443B"/>
<path d="M18.4507 18.2427C18.4507 19.4124 18.1769 20.4204 17.6293 21.2667C17.1067 22.088 16.2356 22.8471 15.016 23.544C14.1947 24.0418 13.2364 24.4151 12.1413 24.664C11.0462 24.9129 9.93867 25.0373 8.81867 25.0373C7.67378 25.0373 6.25511 24.664 4.56267 23.9173C3.34311 23.32 2.37244 22.6107 1.65067 21.7893C0.953778 20.968 0.605333 20.072 0.605333 19.1013C0.605333 18.4293 0.754667 17.944 1.05333 17.6453C1.352 17.3218 1.83733 17.16 2.50933 17.16C2.85778 17.16 3.21867 17.3093 3.592 17.608C3.96533 17.8818 4.18933 18.1556 4.264 18.4293C4.61244 19.4498 5.22222 20.2338 6.09333 20.7813C6.96445 21.304 8.04711 21.5653 9.34133 21.5653C10.8347 21.5653 12.0791 21.2916 13.0747 20.744C14.0951 20.1964 14.6053 19.4622 14.6053 18.5413C14.6053 17.6453 14.0578 16.8489 12.9627 16.152C11.8676 15.4551 10.7476 14.9698 9.60267 14.696C7.96 14.248 6.504 13.7129 5.23467 13.0907C3.91556 12.4436 2.93244 11.6471 2.28533 10.7013C1.63822 9.75555 1.31467 8.76 1.31467 7.71466C1.31467 6.744 1.65067 5.76089 2.32267 4.76533C2.99467 3.74489 3.79111 3.01066 4.712 2.56266C5.20978 2.31378 6.056 2.05244 7.25067 1.77866C8.47022 1.48 9.35378 1.33066 9.90134 1.33066C10.6231 1.33066 11.4196 1.41778 12.2907 1.592C13.1618 1.76622 13.8711 2.01511 14.4187 2.33866C15.5138 2.96089 16.3227 3.52089 16.8453 4.01866C17.368 4.51644 17.6293 5.13866 17.6293 5.88533C17.6293 6.33333 17.4551 6.73155 17.1067 7.08C16.7831 7.42844 16.2107 7.60266 15.3893 7.60266C15.1902 7.60266 14.9911 7.51555 14.792 7.34133C14.5929 7.16711 14.344 6.90578 14.0453 6.55733C13.6471 6.03466 13.2613 5.68622 12.888 5.512C12.5147 5.38755 11.9671 5.25066 11.2453 5.10133C10.5484 4.952 9.92622 4.87733 9.37867 4.87733C8.78133 4.87733 8.15911 5.00178 7.512 5.25066C6.86489 5.49955 6.31733 5.86044 5.86933 6.33333C5.44622 6.78133 5.23467 7.304 5.23467 7.90133C5.23467 8.39911 5.45867 8.83466 5.90667 9.208C6.37956 9.55644 6.93956 9.84267 7.58667 10.0667C8.33333 10.3653 9.14222 10.6267 10.0133 10.8507C11.1582 11.1991 12.0916 11.5227 12.8133 11.8213C13.56 12.0951 14.2818 12.4436 14.9787 12.8667C16.1982 13.5884 17.0818 14.3351 17.6293 15.1067C18.1769 15.8533 18.4507 16.8987 18.4507 18.2427ZM23.8462 1.032C24.7173 1.10666 25.4764 1.34311 26.1235 1.74133C26.7707 2.11466 27.0942 2.68711 27.0942 3.45866C27.0942 4.03111 26.8204 4.49155 26.2729 4.84C25.7502 5.16355 25.1155 5.32533 24.3689 5.32533C23.6471 5.32533 23.1493 5.13866 22.8755 4.76533C22.6018 4.392 22.4649 4.00622 22.4649 3.608C22.4649 2.86133 22.5395 2.23911 22.6889 1.74133C22.8631 1.24355 23.2489 1.00711 23.8462 1.032ZM26.8329 17.5707V18.6533C26.8329 19.624 26.8578 20.5449 26.9075 21.416C26.9822 22.2622 27.0693 23.1209 27.1689 23.992C27.144 24.2409 26.9573 24.5022 26.6089 24.776C26.2604 25.0249 25.9493 25.1493 25.6755 25.1493C25.2027 25.1493 24.7173 25.0622 24.2195 24.888C23.7467 24.6889 23.4604 24.4524 23.3609 24.1787C23.2115 23.3822 23.1369 22.6729 23.1369 22.0507C23.1369 20.0098 23.0747 17.72 22.9502 15.1813C22.8507 12.9413 22.8009 11.3733 22.8009 10.4773C22.8009 10.0293 23.0249 9.64355 23.4729 9.32C23.9209 8.99644 24.3938 8.83466 24.8915 8.83466C25.6133 8.83466 26.1111 8.99644 26.3849 9.32C26.6835 9.64355 26.8329 10.1538 26.8329 10.8507V17.5707ZM48.5183 22.1253C48.6427 22.1751 48.8419 22.2373 49.1156 22.312C49.3894 22.3867 49.5885 22.4613 49.713 22.536C49.8374 22.6107 49.8996 22.7227 49.8996 22.872C49.9245 23.4693 49.7005 23.9671 49.2276 24.3653C48.7796 24.7387 48.2445 24.9253 47.6223 24.9253C46.6516 24.9253 45.8925 24.664 45.345 24.1413C44.7974 23.6187 44.3992 22.8222 44.1503 21.752C44.0507 21.3289 44.001 20.744 44.001 19.9973C44.001 19.5742 44.0259 18.8898 44.0756 17.944C44.1254 16.9484 44.1503 16.152 44.1503 15.5547C44.1503 14.6836 43.9014 13.9244 43.4036 13.2773C42.9307 12.6053 42.2587 12.2693 41.3876 12.2693C40.865 12.2693 40.3174 12.4311 39.745 12.7547C39.1725 13.0533 38.7743 13.4267 38.5503 13.8747C38.177 14.5964 37.9156 15.3804 37.7663 16.2267C37.4925 17.72 37.3556 19.2756 37.3556 20.8933C37.3556 21.6649 37.3681 22.2622 37.393 22.6853C37.393 22.7849 37.393 22.984 37.393 23.2827C37.4179 23.5564 37.393 23.8178 37.3183 24.0667C37.2685 24.2907 37.169 24.5022 37.0196 24.7013C36.8952 24.8258 36.6961 24.9253 36.4223 25C36.1734 25.0996 35.937 25.1493 35.713 25.1493C35.3645 25.1493 34.929 25 34.4063 24.7013C33.8836 24.4027 33.585 24.0667 33.5103 23.6933L33.473 23.0587C33.473 22.8347 33.4978 22.5733 33.5476 22.2747C33.8463 20.5324 33.9956 19.0142 33.9956 17.72C33.9956 17.1476 33.9832 16.6996 33.9583 16.376L33.921 14.6213C33.921 14.024 33.7716 13.4516 33.473 12.904C33.1743 12.3316 32.8258 12.0453 32.4276 12.0453C32.3032 12.0453 32.129 12.0951 31.905 12.1947C31.681 12.2693 31.4943 12.3067 31.345 12.3067C31.0961 12.3067 30.8223 12.1822 30.5236 11.9333C30.2498 11.6844 30.113 11.4231 30.113 11.1493C30.113 10.6267 30.2872 10.2036 30.6356 9.88C31.009 9.58133 31.3698 9.34489 31.7183 9.17066C32.0916 8.99644 32.5147 8.90933 32.9876 8.90933C33.3858 8.90933 33.7094 8.94666 33.9583 9.02133C34.2072 9.096 34.5432 9.25778 34.9663 9.50666C35.1903 9.63111 35.4516 9.90489 35.7503 10.328C36.049 10.7511 36.2978 11.3484 36.497 12.12C37.1441 10.9253 37.9405 10.0916 38.8863 9.61866C39.857 9.12089 41.089 8.872 42.5823 8.872C43.1547 8.872 43.7645 9.05866 44.4116 9.432C45.0836 9.80533 45.6561 10.2409 46.129 10.7387C46.577 11.2862 46.9503 11.9707 47.249 12.792C47.5476 13.5884 47.697 14.3102 47.697 14.9573C47.697 15.3307 47.6721 15.9404 47.6223 16.7867C47.5476 17.4587 47.5103 18.168 47.5103 18.9147C47.5103 20.6569 47.8463 21.7271 48.5183 22.1253ZM66.7903 25.1493C65.9441 25.1493 65.297 25.0249 64.849 24.776C64.401 24.5022 63.9157 24.0044 63.393 23.2827C62.7459 23.8551 61.7752 24.3156 60.481 24.664C59.2117 25.0124 58.1166 25.1867 57.1957 25.1867C55.6774 25.1867 54.4454 24.776 53.4997 23.9547C52.5788 23.1084 52.1183 21.8764 52.1183 20.2587C52.1183 19.5618 52.305 18.9271 52.6783 18.3547C53.0766 17.7573 53.5868 17.2347 54.209 16.7867C54.9059 16.3138 55.7272 15.9404 56.673 15.6667C57.6437 15.3929 58.5272 15.256 59.3237 15.256C60.6677 15.256 61.8623 15.3804 62.9077 15.6293V15.592C62.9077 14.248 62.5717 13.3271 61.8997 12.8293C61.2526 12.3067 60.2072 12.0453 58.7637 12.0453C57.8428 12.0453 57.0463 12.456 56.3743 13.2773C56.1254 13.6009 55.6028 13.7627 54.8063 13.7627C54.4081 13.7627 54.1094 13.6009 53.9103 13.2773C53.7361 12.9289 53.649 12.5804 53.649 12.232C53.649 11.5102 53.9477 10.888 54.545 10.3653C55.1672 9.84266 55.9139 9.45689 56.785 9.208C57.6561 8.93422 58.465 8.79733 59.2117 8.79733C59.9334 8.79733 60.7921 8.94666 61.7877 9.24533C62.7832 9.544 63.5921 9.94222 64.2143 10.44C64.961 11.0871 65.5335 11.8462 65.9317 12.7173C66.3548 13.5636 66.5663 14.4969 66.5663 15.5173C66.5663 15.8409 66.5414 16.3262 66.4917 16.9733C66.4419 17.72 66.417 18.3298 66.417 18.8027C66.417 19.0267 66.3921 19.3129 66.3423 19.6613C66.2926 20.1093 66.2677 20.4827 66.2677 20.7813C66.2677 21.1049 66.3672 21.416 66.5663 21.7147C66.7655 22.0133 67.0392 22.2622 67.3877 22.4613C67.7112 22.6356 67.9228 22.8222 68.0223 23.0213C68.1219 23.2204 68.1717 23.4444 68.1717 23.6933C68.1717 23.9422 68.0099 24.2533 67.6863 24.6267C67.3877 24.9751 67.089 25.1493 66.7903 25.1493ZM59.3237 18.0187C58.353 18.0187 57.4943 18.2053 56.7477 18.5787C56.001 18.952 55.6277 19.6116 55.6277 20.5573C55.6277 21.0302 55.7894 21.4284 56.113 21.752C56.4614 22.0756 56.8348 22.2373 57.233 22.2373C58.3032 22.2373 59.1992 22.1253 59.921 21.9013C60.6428 21.6773 61.5139 21.2667 62.5343 20.6693C62.6588 20.2711 62.7334 19.7111 62.7583 18.9893C62.7583 18.7156 62.7708 18.504 62.7957 18.3547C61.4517 18.1307 60.2943 18.0187 59.3237 18.0187ZM70.568 12.4187C70.3689 12.4187 70.1947 12.344 70.0453 12.1947C69.896 12.0204 69.8213 11.8213 69.8213 11.5973C69.8213 10.8756 70.0578 10.328 70.5307 9.95466C71.0036 9.55644 71.5885 9.35733 72.2853 9.35733C73.256 9.35733 74.0898 9.61866 74.7867 10.1413C75.5085 10.6391 75.8693 11.3609 75.8693 12.3067C75.8693 12.5556 75.8196 13.5013 75.72 15.144C75.6205 17.0356 75.5707 18.2924 75.5707 18.9147C75.5707 19.7858 75.7325 20.4951 76.056 21.0427C76.4045 21.5653 76.9396 21.8267 77.6613 21.8267C79.0551 21.8267 80.1253 21.0551 80.872 19.512C81.6436 17.944 82.1538 16.0276 82.4027 13.7627C82.5022 12.7671 82.6516 11.7218 82.8507 10.6267C82.9502 10.0293 83.0871 9.59378 83.2613 9.32C83.4356 9.04622 83.7716 8.90933 84.2693 8.90933C84.5929 8.90933 84.9662 8.984 85.3893 9.13333C85.8373 9.28266 86.1236 9.48178 86.248 9.73067C86.3973 10.104 86.472 10.5147 86.472 10.9627C86.472 11.5849 86.3849 12.3938 86.2107 13.3893C86.0116 14.3849 85.8747 15.4676 85.8 16.6373C85.7502 17.6827 85.912 18.7778 86.2853 19.9227C86.6587 21.0676 87.1938 21.8142 87.8907 22.1627C88.6871 22.5609 89.0853 22.9218 89.0853 23.2453C89.0853 23.768 88.8987 24.1787 88.5253 24.4773C88.152 24.776 87.7911 24.9253 87.4427 24.9253C86.5218 24.9253 85.688 24.5893 84.9413 23.9173C84.2196 23.2453 83.6969 22.4116 83.3733 21.416C82.8507 22.2124 82.3405 22.872 81.8427 23.3947C81.3698 23.8924 80.76 24.3156 80.0133 24.664C79.2667 24.9876 78.3458 25.1493 77.2507 25.1493C75.9565 25.1493 74.7742 24.6889 73.704 23.768C72.6587 22.8471 72.136 21.2667 72.136 19.0267C72.136 18.4044 72.1485 17.7449 72.1733 17.048C72.2231 16.3511 72.248 15.8533 72.248 15.5547C72.3227 14.6587 72.36 13.8373 72.36 13.0907C72.36 12.8667 72.2729 12.68 72.0987 12.5307C71.9493 12.3813 71.7751 12.3067 71.576 12.3067C71.4267 12.3067 71.2525 12.3316 71.0533 12.3813C70.8791 12.4062 70.7173 12.4187 70.568 12.4187ZM108.971 16.1147C109.121 15.5671 109.283 14.8204 109.457 13.8747C109.706 12.7547 109.905 11.9084 110.054 11.336C110.203 10.7636 110.403 10.2782 110.651 9.88C110.925 9.432 111.162 9.13333 111.361 8.984C111.585 8.83466 111.821 8.76 112.07 8.76C113.364 8.76 114.011 9.25778 114.011 10.2533C114.011 10.7511 113.812 11.6844 113.414 13.0533C112.095 17.0356 111.149 20.1218 110.577 22.312C110.328 23.2329 109.955 23.9422 109.457 24.44C108.959 24.9129 108.287 25.1493 107.441 25.1493C107.018 25.1493 106.582 24.9502 106.134 24.552C105.711 24.1289 105.363 23.6187 105.089 23.0213L104.678 22.0133C103.981 20.2462 103.459 18.8898 103.11 17.944C102.787 16.9733 102.575 16.1022 102.475 15.3307L102.139 16.5253C101.542 18.6658 100.92 20.6569 100.273 22.4987C99.9492 23.4444 99.551 24.1289 99.0781 24.552C98.6052 24.9502 97.9955 25.1493 97.2488 25.1493C96.8008 25.1493 96.4026 25.0498 96.0541 24.8507C95.7306 24.6516 95.4195 24.3156 95.1208 23.8427C94.7226 23.1956 94.3368 22.3244 93.9635 21.2293C93.615 20.1342 93.1048 18.4293 92.4328 16.1147C92.1092 15.1191 91.8106 14.0738 91.5368 12.9787C91.263 11.8587 91.1261 11.0747 91.1261 10.6267C91.1261 10.104 91.263 9.69333 91.5368 9.39467C91.8106 9.096 92.2088 8.94667 92.7315 8.94667C93.4035 8.94667 93.8764 9.08355 94.1501 9.35733C94.4239 9.60622 94.6728 9.992 94.8968 10.5147C95.0212 11.4107 95.295 12.68 95.7181 14.3227L96.5395 17.832C96.5892 18.1058 96.7386 18.6782 96.9875 19.5493L97.2861 20.632C97.8337 19.4622 98.2941 18.3422 98.6675 17.272C99.0408 16.2018 99.4515 14.8827 99.8995 13.3147C99.9244 13.2151 100.173 12.3564 100.646 10.7387C100.97 10.216 101.256 9.83022 101.505 9.58133C101.754 9.30755 102.003 9.17066 102.251 9.17066C102.749 9.17066 103.172 9.33244 103.521 9.656C103.894 9.95467 104.168 10.328 104.342 10.776C104.641 11.7467 104.902 12.6302 105.126 13.4267C105.226 13.7502 105.45 14.5342 105.798 15.7787C106.171 16.9982 106.507 18.0311 106.806 18.8773C107.105 19.7236 107.354 20.3209 107.553 20.6693L108.971 16.1147Z" fill="url(#paint0_linear_0_1)"/>
<path d="M28.0371 3.70368C28.0371 5.4219 26.6443 6.29627 24.926 6.29627C23.2078 6.29627 22.3334 5.4219 22.3334 3.70368C22.3334 1.98546 23.2078 1.11108 24.926 1.11108C26.6443 1.11108 28.0371 1.98546 28.0371 3.70368Z" fill="#F5443B"/>
</g>
<defs>
<linearGradient id="paint0_linear_0_1" x1="57.5926" y1="-16" x2="57.5926" y2="40" gradientUnits="userSpaceOnUse">
<stop stop-color="#C7CAFE"/>
<stop offset="1" stop-color="#3D408F"/>
</linearGradient>
<clipPath id="clip0_0_1">
<rect width="1440" height="5053" fill="white" transform="translate(-94 -4730)"/>
</clipPath>
</defs>
</svg>
